<svg data-v-3840ee1c="" t="1701512553358" class="w-4 h-4 mr-1.5 icon" viewBox="0 0 1024 1024" version="1.1" xmlns="http://www.w3.org/2000/svg" p-id="37812" width="48" height="48"><path data-v-3840ee1c="" d="M513 33.22c-265.1 0-480 214.9-480 480s214.9 480 480 480 480-214.9 480-480-214.9-480-480-480z m208.9 652.59c-11.05 19.13-35.51 25.69-54.64 14.64L474.1 588.93c-13.06-7.54-20.26-21.34-19.99-35.42 0-0.17-0.01-0.34-0.01-0.51V329.95c0-22.09 17.91-40 40-40s40 17.91 40 40v201.23l173.17 99.98c19.12 11.05 25.68 35.51 14.63 54.65z" fill="#8a8a8a" p-id="37813"></path></svg>