<svg t="1716435494582" class="icon w-5 h-5 mr-2" viewBox="0 0 1024 1024" version="1.1" xmlns="http://www.w3.org/2000/svg" p-id="6991" width="200" height="200"><path d="M0 0m240.941176 0l542.117648 0q240.941176 0 240.941176 240.941176l0 542.117648q0 240.941176-240.941176 240.941176l-542.117648 0q-240.941176 0-240.941176-240.941176l0-542.117648q0-240.941176 240.941176-240.941176Z" fill="#EBE5FD" p-id="6992"></path><path d="M520.432941 510.494118a304147.154824 304147.154824 0 0 0 251.572706 0 8.432941 8.432941 0 0 0 8.372706-8.372706c0-143.36-116.615529-259.975529-259.945412-259.97553a8.432941 8.432941 0 0 0-8.432941 8.432942v251.542588a8.432941 8.432941 0 0 0 8.432941 8.402823z" fill="#B370F4" opacity=".4" p-id="6993"></path><path d="M674.695529 559.495529a211.546353 211.546353 0 1 1-211.636705-211.456h0.210823c0.060235 70.776471 0 211.425882 0 211.425883h211.425882z" fill="#B370F4" p-id="6994"></path><path d="M463.269647 779.535059h-0.090353c-121.223529 0-219.888941-98.635294-219.949176-219.858824-0.030118-58.729412 22.829176-113.995294 64.331294-155.557647a218.503529 218.503529 0 0 1 155.497412-64.481882h0.210823a8.402824 8.402824 0 0 1 8.402824 8.402823c0.060235 59.994353 0 171.640471 0 203.053177h203.023058a8.402824 8.402824 0 0 1 8.432942 8.402823c0.030118 121.253647-98.575059 219.979294-219.858824 220.03953z m-8.432941-422.912a201.667765 201.667765 0 0 0-135.378824 59.392 201.788235 201.788235 0 0 0-59.422117 143.661176 203.384471 203.384471 0 0 0 203.143529 203.053177v8.402823l0.090353-8.432941c109.176471-0.030118 198.475294-86.678588 202.872471-194.800941h-202.872471a8.282353 8.282353 0 0 1-5.963294-2.469647 8.402824 8.402824 0 0 1-2.439529-5.933177c0-1.355294 0.060235-130.710588 0-202.87247z" fill="#B370F4" p-id="6995"></path></svg>