<svg t="1699866701804" class="icon w-10 h-10" viewBox="0 0 1024 1024" version="1.1" xmlns="http://www.w3.org/2000/svg" p-id="37369" width="200" height="200"><path d="M365.3 921.9c-39.7 0-72.2-32.5-72.2-72.2v-591c0-39.7 32.5-72.2 72.2-72.2h459.5c39.7 0 72.2 32.5 72.2 72.2v590.5c0 39.7-32.5 72.2-72.2 72.2H365.3v0.5z" fill="#FFBA40" p-id="37370"></path><path d="M824.8 209c27.3 0 50.2 22.5 50.2 50.2v590.5c0 27.3-22.5 50.2-50.2 50.2H365.3c-27.3 0-50.2-22.5-50.2-50.2v-591c0-27.3 22.5-50.2 50.2-50.2h459.5m0-44.5H365.3c-52.1 0-94.7 42.6-94.7 94.7v590.5c0 52.1 42.6 94.7 94.7 94.7h459.5c52.1 0 94.7-42.6 94.7-94.7V258.7c0.4-52.1-42.1-94.7-94.7-94.7z" fill="#333333" p-id="37371"></path><path d="M365.3 839.1c-39.7 0-72.2-32.5-72.2-72.2V176c0-39.7 32.5-72.2 72.2-72.2h459.5c39.7 0 72.2 32.5 72.2 72.2v590.5c0 39.7-32.5 72.2-72.2 72.2H365.3v0.4z" fill="#FFBA40" p-id="37372"></path><path d="M824.8 126.3c27.3 0 50.2 22.5 50.2 50.2V767c0 27.3-22.5 50.2-50.2 50.2H365.3c-27.3 0-50.2-22.5-50.2-50.2V176c0-27.3 22.5-50.2 50.2-50.2h459.5m0-44.5H365.3c-52.1 0-94.7 42.6-94.7 94.7v590.5c0 52.1 42.6 94.7 94.7 94.7h459.5c52.1 0 94.7-42.6 94.7-94.7V176c0.4-52.1-42.1-94.7-94.7-94.7z" fill="#333333" p-id="37373"></path><path d="M564.7 332.8c-5.3 0-10-1.9-14.3-5.3L498.2 284l-52.1 43.5c-4.3 3.3-9.1 5.3-14.3 5.3-3.3 0-6.7-0.5-9.6-1.9-7.6-3.8-12.9-11.5-12.9-20.1V126.3c0-12.4 10-22.5 22.5-22.5h132.9c12.4 0 22.5 10 22.5 22.5v184.1c0 8.6-5.3 16.7-12.9 20.1-2.9 1.4-6.3 2.3-9.6 2.3z" fill="#27C18F" p-id="37374"></path><path d="M564.7 126.3v184.1l-66.5-55.5-66.5 55.5V126.3h133m0-45h-133c-24.9 0-44.9 20.1-44.9 44.9v184.1c0 17.2 10 33 25.8 40.6 6.2 2.9 12.4 4.3 19.1 4.3 10.5 0 20.6-3.3 28.7-10.5l37.8-31.6 37.8 31.6c8.1 6.7 18.6 10.5 28.7 10.5 6.2 0 12.9-1.4 19.1-4.3 15.8-7.2 25.8-23.4 25.8-40.6v-184c0-24.9-20.1-45-44.9-45z m110.4 725.3c-12.4 0-22.5-10-22.5-22.5V486.3c0-18.6-15.3-33.9-33.9-33.9s-33.9 15.3-33.9 33.9c0 12.4-10 22.5-22.5 22.5s-22.5-10-22.5-22.5c0-43.5 35.4-78.9 78.9-78.9s78.9 35.4 78.9 78.9v297.9c0 12.4-10.1 22.4-22.5 22.4z m-553.7 0c-12.4 0-22.5-10-22.5-22.5V486.3c0-43.5 35.4-78.9 78.9-78.9s78.9 35.4 78.9 78.9c0 12.4-10 22.5-22.5 22.5s-22.5-10-22.5-22.5c0-18.6-15.3-33.9-33.9-33.9s-33.9 15.3-33.9 33.9v297.9c0 12.4-10 22.4-22.5 22.4zM461.4 797.1c-12.4 0-22.5-10-22.5-22.5 0-22.5-18.2-40.6-40.6-40.6-22.5 0-40.6 18.2-40.6 40.6 0 12.4-10 22.5-22.5 22.5-12.4 0-22.5-10-22.5-22.5 0-47.3 38.2-85.6 85.6-85.6s85.6 38.2 85.6 85.6c0 12.4-10.1 22.5-22.5 22.5z" fill="#333333" p-id="37375"></path><path d="M225.7 921.9C155.9 921.9 99 865 99 795.2s56.9-126.7 126.7-126.7 126.7 56.9 126.7 126.7-56.9 126.7-126.7 126.7z" fill="#27C18F" p-id="37376"></path><path d="M225.7 690.9c57.4 0 104.2 46.4 104.2 104.2 0 57.4-46.4 104.2-104.2 104.2S121.4 853 121.4 795.2c0-57.4 46.9-104.3 104.3-104.3m0-44.4c-82.2 0-149.2 66.9-149.2 149.2s66.9 149.2 149.2 149.2S374.9 878 374.9 795.7s-67-149.2-149.2-149.2z" fill="#333333" p-id="37377"></path><path d="M570.9 921.9c-69.8 0-126.7-56.9-126.7-126.7s56.9-126.7 126.7-126.7 126.7 56.9 126.7 126.7-56.9 126.7-126.7 126.7z" fill="#27C18F" p-id="37378"></path><path d="M570.9 690.9c57.4 0 104.2 46.4 104.2 104.2 0 57.4-46.4 104.2-104.2 104.2-57.9 0-104.2-46.4-104.2-104.2 0.4-57.3 46.8-104.2 104.2-104.2m0-44.4c-82.2 0-149.2 66.9-149.2 149.2s66.9 149.2 149.2 149.2S720.1 878 720.1 795.7s-67-149.2-149.2-149.2z" fill="#333333" p-id="37379"></path></svg>