<svg data-v-3840ee1c="" t="1705985882454" class="icon inline-block w-4 h-4 mr-1 mt-5 mb-5" viewBox="0 0 1024 1024" version="1.1" xmlns="http://www.w3.org/2000/svg" p-id="7701" width="200" height="200"><path data-v-3840ee1c="" d="M200.405333 912.938667a90.965333 90.965333 0 0 1-89.6-93.866667v-614.4a93.866667 93.866667 0 0 1 89.6-93.866667h473.6a91.050667 91.050667 0 0 1 89.6 93.866667v183.466667a33.621333 33.621333 0 0 1-34.133333 34.133333 31.402667 31.402667 0 0 1-34.133333-34.133333v-183.466667a28.586667 28.586667 0 0 0-25.6-29.866667h-473.6c-17.066667 0-25.6 12.8-25.6 29.866667v614.4a28.373333 28.373333 0 0 0 25.6 29.866667h256a33.493333 33.493333 0 0 1 34.133333 34.133333 26.794667 26.794667 0 0 1-29.866667 29.866667z m354.133334-4.266667a47.872 47.872 0 0 1-34.133334-12.8 41.130667 41.130667 0 0 1-12.8-42.666667l12.8-102.4 234.666667-234.666666a51.584 51.584 0 0 1 68.266667 0l76.8 76.8a51.584 51.584 0 0 1 0 68.266666l-234.666667 234.666667-102.4 12.8z m29.866666-128l-8.533333 64 64-8.533333 209.066667-209.066667-55.466667-55.466667z m-341.333333-68.266667a33.664 33.664 0 0 1-34.133333-34.133333 31.36 31.36 0 0 1 34.133333-34.133333h187.733333a34.133333 34.133333 0 0 1 0 68.266666z m0-179.2a33.749333 33.749333 0 0 1-34.133333-34.133333 31.488 31.488 0 0 1 34.133333-34.133333h264.533333a34.133333 34.133333 0 0 1 0 68.266666z m0-179.2a33.536 33.536 0 0 1-34.133333-34.133333 31.488 31.488 0 0 1 34.133333-34.133333h384a34.133333 34.133333 0 1 1 0 68.266666z" p-id="7702" fill="#707070"></path></svg>