<svg t="1698031258903" data-tooltip-target="zhihu-tooltip-bottom" data-tooltip-placement="bottom" class="hover:scale-110 cursor-pointer icon mt-5 w-7 h-7 outline-none" viewBox="0 0 1024 1024" version="1.1" xmlns="http://www.w3.org/2000/svg" p-id="3419" width="200" height="200"><path d="M512 512m-512 0a512 512 0 1 0 1024 0 512 512 0 1 0-1024 0Z" fill="#FFFFFF" p-id="3420"></path><path d="M512 1024A512 512 0 1 1 512 0a512 512 0 0 1 0 1024zM382.08 267.52s-36.16 2.112-48.96 24.512c-12.8 22.336-54.272 137.344-54.272 137.344s13.824 6.4 37.248-10.624c23.424-17.088 30.912-46.848 30.912-46.848l42.56-2.176 1.088 121.408s-73.472-1.088-88.384 0c-14.912 1.088-23.424 40.448-23.424 40.448h111.808s-9.6 67.136-38.4 116.096c-28.672 49.024-83.008 87.296-83.008 87.296s39.424 16 77.696-6.4c38.4-22.336 66.688-120.64 66.688-120.64l89.92 110.08s8.192-52.48-1.472-67.2c-9.664-14.848-62.208-74.304-62.208-74.304l-22.976 20.224 16.32-65.088H531.2s0-38.4-19.2-40.512c-19.136-2.112-78.72 0-78.72 0V371.84h88.32s-1.024-39.424-18.048-39.424H359.68l22.4-64.96z m170.048 61.184v358.592h35.968l13.12 44.992 63.36-45.056h89.088V328.704h-201.6z" fill="#0F84FD" p-id="3421"></path><path d="M594.752 368.64h117.952v277.888h-41.92l-53.376 40.256-11.648-40.32h-11.008V368.64z" fill="#0F84FD" p-id="3422"></path></svg>